<svg width="512" height="512" viewBox="0 0 512 512" fill="none" xmlns="http://www.w3.org/2000/svg">
<path fill-rule="evenodd" clip-rule="evenodd" d="M263.286 9.10066C-3.45554 20.5557 14.1905 19.6197 9.41146 22.5727C1.90546 27.2127 -1.65154 36.5967 0.736461 45.4637C2.22946 51.0107 8.33046 57.1817 13.7695 58.6457C16.9235 59.4957 39.8315 58.8167 114.071 55.6737C166.989 53.4337 236.836 50.4867 269.286 49.1257C301.736 47.7637 338.861 46.1957 351.786 45.6397C379.441 44.4497 407.698 43.2417 457.786 41.1107C477.861 40.2567 495.997 39.1057 498.089 38.5517C503.229 37.1917 509.379 30.8777 510.836 25.4637C513.226 16.5877 509.667 7.21266 502.14 2.56066C499.011 0.626657 496.804 0.186657 489.323 0.00265749C484.353 -0.119343 382.636 3.97466 263.286 9.10066ZM127.786 87.7477C123.694 88.9547 101.947 110.773 96.0875 119.549C82.4865 139.919 84.2705 167.114 100.51 186.998C103.137 190.214 106.073 194.264 107.034 195.998C110.6 202.428 108.702 209.614 101.249 217.903C95.6895 224.088 89.3035 237.047 87.8555 245.085C84.7595 262.271 89.5655 279.342 101.442 293.347C107.008 299.911 108.772 303.297 108.78 307.433C108.789 312.262 106.395 317.18 101.249 322.903C92.7055 332.406 86.7865 348.069 86.7865 361.175C86.7865 373.088 93.0415 388.963 101.558 398.667C111.094 409.533 111.129 416.797 101.695 427.474C96.3955 433.474 92.3845 440.473 89.5595 448.651C86.5855 457.263 86.3965 473.428 89.1735 481.651C94.0285 496.026 103.774 508.494 111.859 510.671C123.442 513.79 134.888 507.097 137.278 495.809C138.563 489.74 136.986 484.115 132.225 477.781C124.629 467.676 124.927 462.33 133.699 451.405C153.543 426.688 153.737 398.893 134.23 375.392C128.382 368.347 126.786 365.165 126.786 360.554C126.786 356.091 128.964 351.75 134.263 345.651C136.891 342.626 140.746 336.551 142.83 332.151C149.065 318.983 150.249 307.693 146.808 294.236C144.378 284.734 141.293 278.944 133.696 269.623C125.274 259.29 124.652 252.669 131.329 244.425C147.158 224.882 151.756 208.584 146.851 189.407C144.38 179.744 141.118 173.355 134.744 165.697C122.887 151.449 123.632 146.952 140.799 129.138C153.75 115.698 155.561 112.32 154.39 103.782C152.721 91.5997 140.234 84.0747 127.786 87.7477ZM12.9975 90.7797C8.27346 92.1417 2.12146 98.6937 0.736461 103.838C-1.61054 112.553 1.90346 122.088 9.10346 126.538C14.7485 130.027 46.1835 132.995 53.1475 130.697C66.9755 126.133 71.1245 108.988 60.9835 98.3117C56.4085 93.4947 53.2005 92.4897 37.8625 91.0647C21.1025 89.5087 17.5465 89.4677 12.9975 90.7797ZM215.286 93.6487C211.182 94.9257 207.277 98.5087 197.852 109.649C188.747 120.41 184.346 128.516 182.259 138.364C180.287 147.67 180.43 154.939 182.764 164.066C185.092 173.166 188.19 179.189 194.607 187.086C197.18 190.253 200.073 194.264 201.034 195.998C204.6 202.428 202.702 209.614 195.249 217.903C189.373 224.439 183.229 237.218 181.711 246.065C178.672 263.765 184.183 280.366 198.88 297.783C204.905 304.923 203.824 313.068 195.604 322.45C186.576 332.755 180.786 347.885 180.786 361.175C180.786 373.088 187.041 388.963 195.558 398.667C205.228 409.685 205.157 416.884 195.27 427.88C190.011 433.73 184.805 442.78 182.173 450.651C179.44 458.824 179.646 473.143 182.621 481.841C187.147 495.074 198.053 508.569 205.937 510.692C218.029 513.948 229.748 506.502 231.39 494.52C232.229 488.401 230.492 482.947 225.962 477.477C217.779 467.596 217.967 463.601 227.157 452.104C230.654 447.73 234.961 441.281 236.729 437.773C246.988 417.42 243.821 394.176 228.23 375.392C222.382 368.347 220.786 365.165 220.786 360.554C220.786 356.091 222.964 351.75 228.263 345.651C234.903 338.008 240.561 325.708 242.011 315.764C244.209 300.684 240.042 285.547 230.272 273.114C221.956 262.534 221.645 262.015 221.08 257.806C220.347 252.34 222.092 247.844 227.328 241.71C247.337 218.27 247.716 188.882 228.313 165.395C217.365 152.142 217.86 147.229 231.731 131.531C240.519 121.584 242.421 117.302 241.39 109.782C240.114 100.468 233.049 93.8357 223.645 93.1217C220.697 92.8977 216.936 93.1347 215.286 93.6487ZM281.693 114.978C266.14 123.189 268.204 147.017 284.856 151.477C291.013 153.125 491.475 169.885 495.786 169.111C506.971 167.104 513.947 155.389 510.836 143.838C509.376 138.416 503.227 132.107 498.089 130.758C495.997 130.209 472.686 127.934 446.286 125.701C419.886 123.469 374.444 119.619 345.304 117.147C316.163 114.674 290.922 112.651 289.211 112.651C287.5 112.651 284.117 113.698 281.693 114.978Z" fill="black"/>
</svg>
